# xmcd
#
# Track frame offsets: 
#        150
#        23952
#        46298
#        64559
#        83554
#        105925
#        123238
#        141279
#        160985
#        189426
#
# Disc length: 2769 seconds
#
# Revision: 0
# Processed by: cddbd v1.5.2PL0 Copyright (c) Steve Scherf et al.
# Submitted via: ExactAudioCopy v1.0b3
#
DISCID=770acf0a
DTITLE=Various Artist - Khuc Tinh Xuan
DYEAR=2006
DGENRE=
TTITLE0=nhom MTV - Xuan da ve
TTITLE1=Ngoc Son - Tet nay vui qua vay
TTITLE2=Thai Thuy Linh - Mua Xuan goi
TTITLE3=Lo Lem - Khuc ca Xuan ron rang
TTITLE4=Kasim Hoang Vu - Mua Xuan
TTITLE5=Van Khanh - Neu Xuan nay vang anh
TTITLE6=nhom Mat Ngoc - Mua Xuan sang
TTITLE7=Hong Nhung - Nang som
TTITLE8=Elvis Phuong - Em da thay mua Xuan chua
TTITLE9=La Thang - Xuan hop mat
EXTD=
EXTT0=
EXTT1=
EXTT2=
EXTT3=
EXTT4=
EXTT5=
EXTT6=
EXTT7=
EXTT8=
EXTT9=
PLAYORDER=
